<?xml version="1.0"?>
<svg xmlns="http://www.w3.org/2000/svg" id="Layer" enable-background="new 0 0 64 64" height="512px" viewBox="0 0 64 64" width="512px" class=""><g><path d="m32 8c-13.233 0-24 10.767-24 24s10.767 24 24 24 24-10.767 24-24-10.767-24-24-24zm0 44c-11.028 0-20-8.972-20-20s8.972-20 20-20 20 8.972 20 20-8.972 20-20 20z" data-original="#000000" class="active-path" data-old_color="#000000" fill="#FFFFFF"/><path d="m42.396 22.567c-.791-.771-2.059-.754-2.828.037l-6.396 6.567c-1.56 1.56-1.56 4.097-.019 5.638l6.414 6.586c.392.403.912.605 1.433.605.503 0 1.007-.188 1.396-.567.791-.771.808-2.037.037-2.828l-6.414-6.623 6.414-6.586c.77-.792.754-2.058-.037-2.829z" data-original="#000000" class="active-path" data-old_color="#000000" fill="#FFFFFF"/><path d="m31.396 22.567c-.791-.771-2.058-.754-2.828.037l-6.396 6.567c-1.56 1.56-1.56 4.097-.019 5.638l6.414 6.586c.392.403.912.605 1.433.605.503 0 1.007-.188 1.396-.567.791-.771.808-2.037.037-2.828l-6.414-6.623 6.414-6.586c.77-.792.754-2.058-.037-2.829z" data-original="#000000" class="active-path" data-old_color="#000000" fill="#FFFFFF"/></g> </svg>
